<?xml version="1.0" encoding="utf-8"?>
<!-- Generator: Adobe Illustrator 18.1.1, SVG Export Plug-In . SVG Version: 6.00 Build 0)  -->
<svg version="1.1" id="Icon" xmlns="http://www.w3.org/2000/svg" xmlns:xlink="http://www.w3.org/1999/xlink" x="0px" y="0px"
	 viewBox="0 0 200 200" enable-background="new 0 0 200 200" xml:space="preserve">
<path fill="#FFFFFF" d="M175,0H25C11.2,0,0,11.2,0,25v150c0,13.8,11.2,25,25,25h150c13.8,0,25-11.2,25-25V25C200,11.2,188.8,0,175,0
	z M75.9,148.2H55.2v-71h20.8V148.2z M65.4,69.4c-6.6,0-10.9-4.7-10.8-10.4c-0.1-6,4.2-10.5,10.9-10.5S76.5,53,76.6,59
	C76.6,64.7,72.3,69.4,65.4,69.4z M156.1,148.2h-20.8v-39.6c0-8.6-3-14.5-10.5-14.5c-5.7,0-9.2,4-10.5,7.8c-0.5,1.4-0.8,3.3-0.8,5.2
	v41.1H92.6v-48c0-8.3,0-17.1-0.3-23h18.4l0.4,10.8h0.4c7.2-11.2,14-9.8,20.6-9.8c13.7,0,23.9,8.2,23.9,27.9V148.2z"/>
</svg>
