<?xml version="1.0" encoding="utf-8"?>
<!-- Generator: Adobe Illustrator 18.1.1, SVG Export Plug-In . SVG Version: 6.00 Build 0)  -->
<svg version="1.1" id="Icon" xmlns="http://www.w3.org/2000/svg" xmlns:xlink="http://www.w3.org/1999/xlink" x="0px" y="0px"
	 viewBox="0 0 200 200" enable-background="new 0 0 200 200" xml:space="preserve">
<path fill="none" d="M115.4,124.2c0,0,6.3,21.1,24.9,16.9c18.6-4.2,19.8-27.8,8.9-40.1C138.2,88.8,109.9,108.2,115.4,124.2z"/>
<path fill="#FFFFFF" d="M175,0H25C11.2,0,0,11.2,0,25v150c0,13.8,11.2,25,25,25h150c13.8,0,25-11.2,25-25V25C200,11.2,188.8,0,175,0
	z M105.3,157.3c-50.1,0-65.1-19.6-67.5-43.3c-2.4-23.7,11.5-38.3,11.5-38.3C47.9,63.3,50,49.9,50,49.9c12.8,2.2,25.5,10.7,25.5,10.7
	c30.3-2.5,53-0.3,53-0.3c16.6-9.5,24.4-8.6,24.4-8.6c1.5,8.2,1.4,23.6,1.4,23.6c4.5,3.3,14.2,12.9,13.9,34.3
	C168,131.2,155.4,157.3,105.3,157.3z"/>
<path fill="#FFFFFF" d="M71.7,99.2h62.1c0,0,17.6-2,17.6,26.8c0.1,25.4-46.4,23.7-46.4,23.7s-51,2-51-26.1
	C54,98.2,71.7,99.2,71.7,99.2z"/>
</svg>
