<?xml version="1.0" encoding="utf-8"?>
<!-- Generator: Adobe Illustrator 18.1.1, SVG Export Plug-In . SVG Version: 6.00 Build 0)  -->
<svg version="1.1" id="Icon" xmlns="http://www.w3.org/2000/svg" xmlns:xlink="http://www.w3.org/1999/xlink" x="0px" y="0px"
	 viewBox="0 0 200 200" enable-background="new 0 0 200 200" xml:space="preserve">
<path fill="#FFFFFF" d="M175,0H25C11.2,0,0,11.2,0,25v150c0,13.8,11.2,25,25,25h150c13.8,0,25-11.2,25-25V25C200,11.2,188.8,0,175,0
	z M155.2,79.7c0,0-7.8,22.8-25.6,41.9c-17.7,19.1-37.8,49.8-55.6,15.7c-17.7-34.1-11.9-43-20.8-59.3c0,0-35.5,6.5-16-7.5
	c19.4-14,42.3-25.9,43.6-8.9c1.4,17.1,7.5,57.3,18.8,54.9c11.3-2.4,22.8-26.6,23.9-36.1c1-9.6-8.2-9.2-8.2-9.2s-16-1-4.4-10.9
	c11.6-9.9,29.3-14.3,44.3-4.1C170.2,66.4,170.6,81.5,155.2,79.7z"/>
</svg>
